<svg xmlns="http://www.w3.org/2000/svg" viewBox="0 0 552.93 268.09"><defs><style>.cls-1{isolation:isolate;}.cls-2{opacity:0.8;mix-blend-mode:soft-light;}.cls-3{fill:#00d7ff;}.cls-4{fill:#ff63be;}.cls-5{fill:#fff;}.cls-6{fill:#ffd01f;}.cls-7{fill:#ffb700;}.cls-8{fill:#00aef2;}.cls-9{fill:#ffcc38;}</style></defs><title>Ativo 1</title><g class="cls-1"><g id="Camada_2" data-name="Camada 2"><g id="BACKGROUND_2" data-name="BACKGROUND 2"><g class="cls-2"><path d="M548.24,237h-349a4.65,4.65,0,0,0-4.68,4.26A4.49,4.49,0,0,0,199,246h349.5a4.49,4.49,0,0,0,4.44-4.74A4.66,4.66,0,0,0,548.24,237Z"/><path d="M176.5,245.75H9a4.44,4.44,0,0,1-4.44-4.44h0A4.44,4.44,0,0,1,9,236.87H176.5a4.44,4.44,0,0,1,4.44,4.44h0A4.44,4.44,0,0,1,176.5,245.75Z"/></g><path class="cls-3" d="M523.41,110.48h13.17a0,0,0,0,1,0,0v16a4.4,4.4,0,0,1-4.4,4.4h-4.36a4.4,4.4,0,0,1-4.4-4.4v-16A0,0,0,0,1,523.41,110.48Z"/><path class="cls-4" d="M544,106c2-3.34,1.4-9.06-2.24-12.78a11.38,11.38,0,0,0-13.41-2.13l-.74.38a11.4,11.4,0,0,0-5.79,7.38l-2.13,10.31-4.55,1.49,1.29,12.78,4.33-3.83,6.86-5.91,4.34,2.2a5.65,5.65,0,0,0,7.67-2l0,0,1.31-2.22Z"/><path class="cls-3" d="M545.54,102.64l.47-.07a12.69,12.69,0,0,0-8.72-15.09h0a12.69,12.69,0,0,0-16.14,10,55.34,55.34,0,0,0-.95,9.18l8.55-7.32.73.41A25.08,25.08,0,0,0,545.54,102.64Z"/><path class="cls-5" d="M535.7,111.14a2.49,2.49,0,0,1-4.28-2.53"/><path d="M531.07,140.45l-1.44-15.71a6.49,6.49,0,0,0-1.67-3.32L523.81,117l-3.07,2.64-5.62-9-11-4s-18.31,25.25-20.64,40.14l-.61,3.86,25.26,4.6,8.72-14.52,4.5-4,1.74,10.9a6.19,6.19,0,0,0,6.28,5.21h0a6.19,6.19,0,0,0,5.41-3.5l10.59-22-6-2.74Z"/><path class="cls-6" d="M474,224.52l16.81-53.34s14.9-9.38,16.9-14.74l.44-1.19-25.26-4.6-3.39,6a24,24,0,0,0-4.3,12.92l-.56,17.13-2.55,6.49c-2.21,5.63-4.46,16.87-4.78,22.9l-.54,8.43Z"/><path class="cls-7" d="M503.12,221.48l.36,3h7.89L514.8,193a12,12,0,0,0-.63-5.86l-6-31.91-11.07-2-6.27,17.94,13.28,20.69S501.77,211.16,503.12,221.48Z"/><path class="cls-4" d="M529.38,103a2.85,2.85,0,1,1-1-3.9A2.85,2.85,0,0,1,529.38,103Z"/><polygon points="499.91 123 495.67 146.24 512.59 167.53 517.88 164.03 508.51 142.76 508.37 117.39 499.91 123"/><path class="cls-4" d="M545.41,127.34h0a8,8,0,0,0,3-2.65l1.07-1.58a2.94,2.94,0,0,0-.69-3.38l-2.86-2.64,2.16-4.18a1.13,1.13,0,0,0-.64-1.59h0a1.14,1.14,0,0,0-1.27.37l-3.59,4.61-.34.37a10.08,10.08,0,0,0-1.68,2.47h0a10.27,10.27,0,0,0-1,3.6l-.16,1.86Z"/><path class="cls-4" d="M524.77,173.33h0a1.22,1.22,0,0,0,.45-1.64l-2.6-4.56-2.94-.33,3.46,6.08A1.2,1.2,0,0,0,524.77,173.33Z"/><path class="cls-4" d="M523.17,175.51h0a1.2,1.2,0,0,0,.45-1.62l-3.94-7.09L517.6,168l3.93,7.07A1.2,1.2,0,0,0,523.17,175.51Z"/><path class="cls-4" d="M520.61,175.69h0a1.19,1.19,0,0,0,.44-1.63L517.6,168l-2.08,1.18,3.45,6.08A1.2,1.2,0,0,0,520.61,175.69Z"/><path class="cls-4" d="M516.89,174h0a1.22,1.22,0,0,0,.45-1.64l-1.82-3.2-2.08,1.19,1.82,3.2A1.2,1.2,0,0,0,516.89,174Z"/><path class="cls-4" d="M514.13,171.56,513,169.51l-.23-2.26,5.45-3.27.13,0a7.15,7.15,0,0,1,4.59,3.62l.17-.08Z"/><path d="M116.68,242.87l-2.79,5.69h17.54a4.25,4.25,0,0,0-4.77-3.16l-2.1.32a2.06,2.06,0,0,1-1.9-2.85h-6Z"/><path d="M131.49,242.87l-2.79,5.69h17.55a4.26,4.26,0,0,0-4.77-3.16l-2.1.32a2.05,2.05,0,0,1-1.9-2.85h-6Z"/><path class="cls-8" d="M129.64,243.4l-15.52-39.92-17.81-9L76.1,205.37l-5.65-8.68,22,2.45,29.57-6.7a7.38,7.38,0,0,1,4.62,5.67L140,243.4Z"/><path class="cls-3" d="M111.21,193.4a7.38,7.38,0,0,1,3.92,5.84l10.16,44.16H115.6l-14.28-37.66s-18.08,4.42-30.47,4.42c-5.44,0-11.42-5.12-11.42-11.43v-2Z"/><path class="cls-9" d="M101.41,192.07l5.34-8.17L94.27,157.67a11,11,0,0,0-9.92-6.26H68.44a13.37,13.37,0,0,0-11.63,6.77L43.09,178.83a5.93,5.93,0,0,0,2.49,8.68l13.85,6.28v5.35l30.25-3.6-.8-28.41Zm-45.65-9.78a2.13,2.13,0,0,1-.85-3.22l4.52-6V183.9Z"/><path class="cls-4" d="M91.12,128.74c.07-4.33-3.78-9.41-9.35-10.91a12.6,12.6,0,0,0-14,5.54l-.48.78A12.61,12.61,0,0,0,66,134.45l3.67,10.86,0,6.1L75.05,154l5.11-2.58.09-6.6,4.87,0a6.25,6.25,0,0,0,6.17-6.25v-4.66Z"/><path class="cls-5" d="M86,138.11a2.76,2.76,0,0,1-5.51,0"/><path class="cls-4" d="M78.3,193.49h0a1.32,1.32,0,0,0-.56-1.79L72.59,189l-3.45,1.71,7.37,3.33A1.32,1.32,0,0,0,78.3,193.49Z"/><path class="cls-4" d="M78.12,196.48h0a1.32,1.32,0,0,0-.55-1.78l-7.93-4.23-1.22,2.35,7.9,4.22A1.32,1.32,0,0,0,78.12,196.48Z"/><path class="cls-4" d="M75.85,198.19h0a1.32,1.32,0,0,0-.56-1.79l-6.87-3.58-1.23,2.35,6.87,3.58A1.32,1.32,0,0,0,75.85,198.19Z"/><path class="cls-4" d="M71.37,198.84h0a1.31,1.31,0,0,0-.56-1.78l-3.62-1.89L66,197.52l3.62,1.89A1.33,1.33,0,0,0,71.37,198.84Z"/><path class="cls-4" d="M67.34,198.24l-1.69-.88a3.33,3.33,0,0,1-1.08-.89l-1.12-1.41,3.1-6.32.15-.05a7.91,7.91,0,0,1,6.44.61Z"/><path d="M74.32,113.89h0c7-1.76,14.34,1.6,16.79,8.71a9.53,9.53,0,0,1,.63,2.75l-5.38.35-2-3.49-.85,3.63-9.38.65L68,141.12a45.17,45.17,0,0,1-3.61-8.29A14.28,14.28,0,0,1,74.32,113.89Z"/><path class="cls-4" d="M74.12,133.89a2.53,2.53,0,1,1-2.53-2.53A2.53,2.53,0,0,1,74.12,133.89Z"/><path d="M80.67,113.43a5,5,0,1,1-5-5A5,5,0,0,1,80.67,113.43Z"/><path d="M74.22,121.71v16.85a14,14,0,0,1-2-9.74C73.23,123.36,74.22,121.71,74.22,121.71Z"/><path class="cls-5" d="M127.06,196.18H90.29A3.69,3.69,0,0,1,94,192.49h33.08Z"/><path d="M134.36,196H102.09a3,3,0,0,1-3-3.65l4.43-20.73a3,3,0,0,1,3-2.38H138.8a3,3,0,0,1,2.95,3.65l-4.43,20.72A3,3,0,0,1,134.36,196Z"/><path class="cls-5" d="M123.23,182.63a2.79,2.79,0,1,1-2.79-2.79A2.79,2.79,0,0,1,123.23,182.63Z"/><path class="cls-3" d="M426.51,210a14.78,14.78,0,0,0,14.88,15h12.2a15,15,0,1,0,0-30h-7.73l-8.64-3.49v4.23C431.22,197.76,426.51,203.26,426.51,210Z"/><path class="cls-3" d="M92.3,87.8A14.4,14.4,0,0,1,107,73h12.2a15,15,0,1,1,0,30h-7.72l-8.22,3v-4.23C95.22,99.77,92.3,94.51,92.3,87.8Z"/><path class="cls-3" d="M361.61,76.74a8.56,8.56,0,0,1-1.15,4.83,17.11,17.11,0,0,1-4.13,3.71,7.67,7.67,0,0,0-2.44,2.4A6.19,6.19,0,0,0,353,91a4.46,4.46,0,0,0,1,3.09,3.78,3.78,0,0,0,3,1.15,3.68,3.68,0,0,0,2.58-.94,3.74,3.74,0,0,0,1.09-2.82h7.59l.05.14q.06,4.8-3.06,7.21a13.13,13.13,0,0,1-8.25,2.41c-3.66,0-6.55-.92-8.65-2.77A9.44,9.44,0,0,1,345.2,91a9,9,0,0,1,1.72-5.31,12.19,12.19,0,0,1,4.38-3.81,5.27,5.27,0,0,0,2-2.09,7.29,7.29,0,0,0,.52-3Zm-7.77-9.6h7.75v6.23h-7.75Z"/><path class="cls-4" d="M187.08,171a8.49,8.49,0,0,1,1.16-4.82,16.91,16.91,0,0,1,4.13-3.72,7.53,7.53,0,0,0,2.43-2.4,6.09,6.09,0,0,0,.89-3.3,4.44,4.44,0,0,0-1-3.1,3.78,3.78,0,0,0-3-1.15A3.49,3.49,0,0,0,188,156.3h-7.6l0-.14q-.07-4.8,3.06-7.21a13.11,13.11,0,0,1,8.25-2.41q5.49,0,8.64,2.77a9.46,9.46,0,0,1,3.15,7.48,9,9,0,0,1-1.72,5.31,12.27,12.27,0,0,1-4.37,3.81,5.28,5.28,0,0,0-2,2.08,7.46,7.46,0,0,0-.52,3Zm7.78,9.6H187.1V174.4h7.76Z"/><path class="cls-4" d="M187.08,171a8.49,8.49,0,0,1,1.16-4.82,16.91,16.91,0,0,1,4.13-3.72,7.53,7.53,0,0,0,2.43-2.4,6.09,6.09,0,0,0,.89-3.3,4.44,4.44,0,0,0-1-3.1,3.78,3.78,0,0,0-3-1.15A3.49,3.49,0,0,0,188,156.3h-7.6l0-.14q-.07-4.8,3.06-7.21a13.11,13.11,0,0,1,8.25-2.41q5.49,0,8.64,2.77a9.46,9.46,0,0,1,3.15,7.48,9,9,0,0,1-1.72,5.31,12.27,12.27,0,0,1-4.37,3.81,5.28,5.28,0,0,0-2,2.08,7.46,7.46,0,0,0-.52,3Zm7.78,9.6H187.1V174.4h7.76Z"/><path d="M54.24,105.88H46.41V84.19h7.83Zm0,11.92H46.41v-6.54h7.83Z"/><path d="M494.74,57.31h-7.82V35.61h7.82Zm0,11.91h-7.82V62.69h7.82Z"/><path class="cls-5" d="M156.65,162.73a86.18,86.18,0,0,1-5.13,30,72.74,72.74,0,0,1-14.63,24.31l30.9,29.89-26.08,21.15-33.06-32.3a86.1,86.1,0,0,1-14.5,3.87A89.67,89.67,0,0,1,78.64,241q-35.08,0-56.86-22.1T0,162.73V129.55Q0,95.6,21.72,73.45T78.39,51.29q34.69,0,56.48,22.16t21.78,56.1ZM114,129.29q0-19.75-9.31-32.41T78.39,84.21q-17.36,0-26.53,12.6t-9.18,32.48v33.44q0,20,9.3,32.67t26.66,12.66q16.85,0,26.09-12.66T114,162.73Z"/><path class="cls-5" d="M322.68,54V174.76q0,31.53-21,48.88T246.83,241q-34.32,0-55.34-17.35t-21-48.88V54H213.4V174.76q0,17,8.73,25.13t24.7,8.17q15.82,0,24.38-8.1t8.54-25.2V54Z"/><path class="cls-5" d="M378.09,238.33H335.42V54h42.67Z"/><path class="cls-5" d="M443.78,205.4h84v32.93H391.1V219.08L473.54,86.87H390.72V54H526.6V72.43Z"/><path class="cls-6" d="M220.46,15.12A15.26,15.26,0,0,0,205.1,0H192.91a15,15,0,1,0,0,30h7.72l9.59,3.68V29.45A15,15,0,0,0,220.46,15.12Z"/><path d="M235,200.76,234,206l-13.07-6.76h0a3.84,3.84,0,0,1,5.12-.56l1.55,1.13a1.83,1.83,0,0,0,2.68-1.49h0Z"/><path d="M259.56,200.76l1.06,5.21,13.07-6.76h0a3.83,3.83,0,0,0-5.11-.56L267,199.78a1.84,1.84,0,0,1-2.69-1.49h0Z"/><path class="cls-9" d="M265.62,150.85,261.79,116l-13.27-5.25-1.22.47-1.22-.47L232.81,116,229,150.85a9.42,9.42,0,0,0-.05,1.3l1.32,46.14,4.78,2.47s3.27-5.88,4.77-20.09a155.08,155.08,0,0,0,.34-27l7.15-25.58,7.15,25.58a154.53,154.53,0,0,0,.35,27c1.5,14.21,4.76,20.09,4.76,20.09l4.78-2.47,1.33-46.14A11.3,11.3,0,0,0,265.62,150.85Z"/><path class="cls-4" d="M310,52.47l-10.1,3.22.71,2.23,10.1-3.21a1.17,1.17,0,0,0-.71-2.24Z"/><path class="cls-4" d="M298.21,53.63,299,53a20.33,20.33,0,0,0,10.86-8.29l.2-.3a1.88,1.88,0,0,1,2.86-.35h0a1.88,1.88,0,0,1,.44,2.14h0a20.32,20.32,0,0,1-10.27,10.31L298,58.75Z"/><path class="cls-4" d="M184.87,52.47,195,55.69l-.71,2.23-10.1-3.21a1.17,1.17,0,0,1,.71-2.24Z"/><path class="cls-4" d="M196.66,53.63l-.79-.66A20.39,20.39,0,0,1,185,44.68l-.19-.3A1.88,1.88,0,0,0,182,44h0a1.87,1.87,0,0,0-.44,2.14h0a20.31,20.31,0,0,0,10.26,10.31l5.09,2.27Z"/><path class="cls-3" d="M298.82,52.93,252.4,68.06h-9.93L196.05,52.93,194.62,58,231,75.4l1.09,40.6H262.8l1.08-40.6,36.37-17.56Z"/><path class="cls-4" d="M263.3,45.59c.07-4.39-3.82-9.54-9.46-11.05a12.78,12.78,0,0,0-14.16,5.61l-.49.79a12.79,12.79,0,0,0-1.37,10.43l3.72,11-.19,5.33,5.84,5.25,5.21-4.88V61.7l4.83.14a6.33,6.33,0,0,0,6.24-6.33V50.79Z"/><path d="M240.07,96.38h0a4.14,4.14,0,0,0,4.15-4.17L244,47.92l19.46-5.17a9.32,9.32,0,0,0-.61-2.68c-2.39-6.94-9.51-10.22-16.38-8.5h0A14,14,0,0,0,235.9,45.21c0,.53,0,33.25,0,47A4.15,4.15,0,0,0,240.07,96.38Z"/><path class="cls-5" d="M258.11,55.07a2.79,2.79,0,1,1-5.57,0"/><path class="cls-4" d="M247.81,50.65a3.3,3.3,0,1,1-3.3-3.3A3.3,3.3,0,0,1,247.81,50.65Z"/><path d="M406.41,138.05V161.7a2.84,2.84,0,0,0,2.27,2.84,2.73,2.73,0,0,0,3.19-2.69V155a2.77,2.77,0,0,1,2.77-2.73c1.29,0,2.69.89,2.69,2.09v23a2.84,2.84,0,0,0,2.27,2.84,2.73,2.73,0,0,0,3.19-2.69l-.05-17.81a2.76,2.76,0,0,1,2.88-2.79h0a2.76,2.76,0,0,1,2.63,2.75v5.41a2.83,2.83,0,0,0,2.27,2.84,2.73,2.73,0,0,0,3.19-2.69V133.35Z"/><path class="cls-4" d="M407.12,69.72h27.57l7.45-15.84a5.29,5.29,0,0,0-5.32-7.5h0a5.23,5.23,0,0,0-2.44.89l-13.47,9.18-13.48-9.18a5.2,5.2,0,0,0-2.43-.89h0a5.28,5.28,0,0,0-5.32,7.5Z"/><path class="cls-4" d="M376.2,144l7.09-7.76-1.71-1.57-7.09,7.77A1.16,1.16,0,1,0,376.2,144Z"/><path class="cls-4" d="M385.77,137.15l-.36.95a20.09,20.09,0,0,0-5.23,12.51l0,.35a1.87,1.87,0,0,1-2.29,1.72h0a1.87,1.87,0,0,1-1.44-1.62h0a20.14,20.14,0,0,1,3.73-13.95l3.25-4.48Z"/><path class="cls-4" d="M467,144l-7.09-7.76,1.71-1.57,7.1,7.77A1.16,1.16,0,1,1,467,144Z"/><path class="cls-4" d="M457.4,137.15l.36.95A20.09,20.09,0,0,1,463,150.61l0,.35a1.87,1.87,0,0,0,2.29,1.72h0a1.87,1.87,0,0,0,1.44-1.62h0A20.14,20.14,0,0,0,463,137.11l-3.25-4.48Z"/><path class="cls-6" d="M461.25,134.53,437.6,102.67l-2.91-32.95-1.9-.56a42.16,42.16,0,0,0-23.41-.09l-2.26.65L405.35,103l-23.42,31.57,3.66,3.52,17.88-18.76a25.08,25.08,0,0,1,18.08-7.77h0a25,25,0,0,1,18.14,7.72l17.89,18.64Z"/><path class="cls-4" d="M405.63,133.55c-.07,4.25,3.7,9.23,9.16,10.69a12.36,12.36,0,0,0,13.7-5.42l.47-.77A12.31,12.31,0,0,0,430.29,128l-3.6-8.92,0-6.35-5.06-3.85-5.19,3.85-.12,6.84H411.5a6.13,6.13,0,0,0-6,6.13v2.85Z"/><path class="cls-5" d="M410.65,126.09a2.7,2.7,0,1,1,5.4,0"/><path d="M423.27,132.37l-18.15,3.88a9.55,9.55,0,0,0,.63,2.76c2.47,7.15,9.8,10.53,16.88,8.76A14.63,14.63,0,0,0,433.71,134c0-6.09-5.57-11.41-5.57-11.41Z"/><path class="cls-4" d="M421.07,130.23a3.09,3.09,0,1,1,3.09,3.09A3.09,3.09,0,0,1,421.07,130.23Z"/><path d="M344.92,189.74c-2.08-6.78-5.08-9.67-10.65-10-2.46-.15-23.1-.15-25.56,0-5.57.34-8.14,3.84-10.24,10.73l-4.7,19a7.26,7.26,0,0,0,1.77,5.91l6.35,7.08,3-25,5.45,29.86h24.47l4.05-29.86,4,24.86,6.19-7a7.24,7.24,0,0,0,1.73-5.91Z"/><path class="cls-4" d="M305.15,158.25c-.07-4.36,3.79-9.46,9.38-10.95a12.66,12.66,0,0,1,14,5.55l.49.79A12.66,12.66,0,0,1,330.41,164l-3.69,9.14,0,6.5-5.19,3.95-5.32-3.95-.12-7h-4.89a6.29,6.29,0,0,1-6.19-6.29v-2.91Z"/><path class="cls-5" d="M310.29,165.89a2.77,2.77,0,1,0,5.53,0"/><path class="cls-3" d="M327.3,171.7l3.85-6.64a14.67,14.67,0,0,0,1.21-2.68l0-.07c2.5-7.46-1.26-15.84-8.73-18.31-.36-.12-.72-.22-1.1-.32-7.24-1.81-14.76,1.65-17.29,9a9.9,9.9,0,0,0-.64,2.83l9.1,6.62a4.94,4.94,0,0,0,6.68-.8l1.85-2.21Z"/><path class="cls-4" d="M321,161.65a3.17,3.17,0,1,0,3.17-3.16A3.17,3.17,0,0,0,321,161.65Z"/><path class="cls-4" d="M359.85,227.22a7.17,7.17,0,0,0-8-2.92L338.05,228H306.34l-13.81-3.7a7.28,7.28,0,0,0-8,3.1,7.56,7.56,0,0,0,3.38,10.85L312.55,246h26.1l17.82-7.84A7.65,7.65,0,0,0,359.85,227.22Z"/><path d="M330.28,243.6l1.84,2.05,17.67.24h0a4.36,4.36,0,0,0-4.78-3.4l-2.17.26a9.29,9.29,0,0,1-6.53-3.16Z"/><path d="M303.12,242.57a7.28,7.28,0,0,1-1.58.18l-2.16-.26a4.36,4.36,0,0,0-4.79,3.4l18-.21Z"/><path class="cls-5" d="M338.93,236.06H305.41a3.25,3.25,0,0,1-3.24-2.92L300,212.24a3.26,3.26,0,0,1,3.24-3.59h37.91a3.25,3.25,0,0,1,3.23,3.6l-2.22,20.9A3.25,3.25,0,0,1,338.93,236.06Z"/><path class="cls-6" d="M325,222.35a2.85,2.85,0,1,1-2.85-2.85A2.85,2.85,0,0,1,325,222.35Z"/><path d="M304,156.43c.06-.78.18-3,.24-4.27.54-6.59,7.67-11.89,15.08-11.74a15.36,15.36,0,0,1,13.94,10.27,14.64,14.64,0,0,1,.81,4l-.07,1.55-38.1,2.18-.09-1.55Z"/></g></g></g></svg>